G04 start of page 6 for group -4063 idx -4063 *
G04 Title: (unknown), componentmask *
G04 Creator: pcb 20110918 *
G04 CreationDate: Wed Jul 25 20:17:01 2012 UTC *
G04 For: fosse *
G04 Format: Gerber/RS-274X *
G04 PCB-Dimensions: 476000 152000 *
G04 PCB-Coordinate-Origin: lower left *
%MOIN*%
%FSLAX25Y25*%
%LNTOPMASK*%
%ADD33R,0.0907X0.0907*%
%ADD32C,0.0690*%
%ADD31C,0.2060*%
G54D31*X27000Y14504D03*
G54D32*Y46000D03*
X41961D03*
X34480Y51000D03*
X19520D03*
X27000Y56000D03*
X41961D03*
G54D31*X27000Y137496D03*
G54D32*X34480Y61000D03*
Y71000D03*
Y81000D03*
Y91000D03*
Y101000D03*
X19520Y61000D03*
Y71000D03*
Y81000D03*
Y91000D03*
Y101000D03*
X27000Y66000D03*
Y76000D03*
Y86000D03*
Y96000D03*
Y106000D03*
X41961Y66000D03*
Y76000D03*
Y86000D03*
Y96000D03*
Y106000D03*
G54D33*X433851Y28500D02*X440150D01*
X403871Y28520D02*X410170D01*
X373871D02*X380170D01*
X343871D02*X350170D01*
X433891Y123539D02*X440190D01*
X403891Y123538D02*X410190D01*
X373891D02*X380190D01*
X343891D02*X350190D01*
X253891D02*X260190D01*
X313871Y28520D02*X320170D01*
X283871D02*X290170D01*
X313871Y123519D02*X320170D01*
X283891Y123538D02*X290190D01*
X253871Y28520D02*X260170D01*
X223890Y28500D02*X230189D01*
X163871Y28520D02*X170170D01*
X193891Y28540D02*X200190D01*
X133871Y28520D02*X140170D01*
X103870D02*X110169D01*
X73871D02*X80170D01*
X223871Y123519D02*X230170D01*
X193891Y123538D02*X200190D01*
X163891D02*X170190D01*
X133891D02*X140190D01*
X103891D02*X110190D01*
X73891D02*X80190D01*
M02*
