G04 start of page 2 for group 0 idx 0 *
G04 Title: (unknown), component *
G04 Creator: pcb 20110918 *
G04 CreationDate: Wed Jul 25 20:17:01 2012 UTC *
G04 For: fosse *
G04 Format: Gerber/RS-274X *
G04 PCB-Dimensions: 476000 152000 *
G04 PCB-Coordinate-Origin: lower left *
%MOIN*%
%FSLAX25Y25*%
%LNTOP*%
%ADD19C,0.0350*%
%ADD18C,0.1250*%
%ADD17C,0.0200*%
%ADD16C,0.0400*%
%ADD15R,0.0807X0.0807*%
%ADD14C,0.0630*%
%ADD13C,0.2000*%
%ADD12C,0.0070*%
%ADD11C,0.0150*%
G54D11*X159580Y66000D02*X197040Y28540D01*
X184540Y71000D02*X227020Y28520D01*
X184500Y71000D02*X184540D01*
X209500Y76000D02*X209540D01*
X234500Y81000D02*X234540D01*
X228501Y84000D02*Y80000D01*
X242000Y43500D02*X209500Y76000D01*
X234540Y81000D02*X287020Y28520D01*
X259500Y86000D02*X259540D01*
X272501Y49000D02*Y64000D01*
X259540Y86000D02*X317020Y28520D01*
X284500Y91000D02*X284540D01*
X347020Y28520D01*
X303501Y49000D02*Y64000D01*
X361000Y44500D02*X309500Y96000D01*
X228501Y80000D02*X273501Y35000D01*
Y31000D01*
X257020Y28520D02*X246480D01*
X242000Y33000D01*
Y43500D01*
X243501Y99000D02*X228501Y84000D01*
X243501Y99000D02*X264000D01*
X334500Y101000D02*X334540D01*
X359501Y106000D02*Y105998D01*
X334540Y101000D02*X407020Y28520D01*
X377020D02*X368480D01*
X361000Y36000D01*
Y44500D01*
X329000Y95501D02*X393501Y31000D01*
X394000Y88000D02*Y110498D01*
X359501Y105998D02*X437000Y28500D01*
X410000Y65000D02*Y72000D01*
X394000Y88000D01*
X287040Y123538D02*Y122040D01*
X264000Y99000D01*
X309500Y96000D02*X309540D01*
X317020Y123519D02*X320481D01*
X329000Y115000D01*
Y95501D01*
X368000Y106000D02*Y114000D01*
X359000Y123000D01*
X347578D01*
X347040Y123538D01*
X394000Y110498D02*X407040Y123538D01*
X65500Y127000D02*X49500D01*
X56500Y120000D02*X47500D01*
Y114000D02*X97502D01*
X107040Y123538D01*
X154501Y111000D02*X154502D01*
X167040Y123538D01*
X24500Y112000D02*X45500D01*
X19520Y91000D02*X19500D01*
X13500Y97000D01*
Y106000D01*
X10500Y90000D02*Y108000D01*
X47500Y114000D02*X45500Y112000D01*
X19520Y101000D02*Y107020D01*
Y106980D02*Y107020D01*
X24500Y112000D01*
X13500Y106000D02*X22500Y115000D01*
X10500Y108000D02*X20500Y118000D01*
X22500Y115000D02*X42500D01*
X20500Y118000D02*X40500D01*
X49500Y127000D02*X40500Y118000D01*
X47500Y120000D02*X42500Y115000D01*
X19500Y81000D02*X10500Y90000D01*
X19520Y81000D02*X19500D01*
X19520Y61000D02*X19501D01*
X19520Y71000D02*X19501D01*
X19520Y51000D02*Y44981D01*
X24501Y40000D01*
X19501Y61000D02*X14501Y56000D01*
Y46000D01*
X23501Y37000D01*
X19501Y71000D02*X11501Y63000D01*
Y44000D01*
X21501Y34000D01*
X23501Y37000D02*X43501D01*
X21501Y34000D02*X31501D01*
X24501Y40000D02*X48501D01*
X43501Y37000D02*X47501Y33000D01*
X48501Y40000D02*X51501Y37000D01*
X47501Y24000D02*X41501D01*
X31501Y34000D02*X41501Y24000D01*
X59499Y46000D02*X59540D01*
X77020Y28520D01*
X84500Y51000D02*X84540D01*
X107020Y28520D01*
X109500Y56000D02*X109540D01*
X137020Y28520D01*
X134500Y61000D02*X134540D01*
X167020Y28520D01*
X159540Y66000D02*X159580D01*
X61001Y3500D02*Y6000D01*
X66001Y3500D02*Y6000D01*
X71001Y3500D02*Y6000D01*
X76001Y3500D02*Y6000D01*
X81001Y3500D02*Y6000D01*
X86001Y3500D02*Y6000D01*
X91001Y3500D02*Y6000D01*
X96001Y3500D02*Y6000D01*
X101001Y3500D02*Y6000D01*
X106001Y3500D02*Y6000D01*
X111001Y3500D02*Y6000D01*
X116001Y3500D02*Y6000D01*
X121001Y3500D02*Y6000D01*
X126001Y3500D02*Y6000D01*
X131001Y3500D02*Y6000D01*
X136001Y3500D02*Y6000D01*
X141001Y3500D02*Y6000D01*
X146001Y3500D02*Y6000D01*
X151001Y3500D02*Y6000D01*
X156001Y3500D02*Y6000D01*
X161001Y3500D02*Y6000D01*
X166001Y3500D02*Y6000D01*
X171001Y3500D02*Y6000D01*
X176001Y3500D02*Y6000D01*
X181001Y3500D02*Y6000D01*
X186001Y3500D02*Y6000D01*
X191001Y3500D02*Y6000D01*
X196001Y3500D02*Y6000D01*
X201001Y3500D02*Y6000D01*
X206001Y3500D02*Y6000D01*
X211001Y3500D02*Y6000D01*
X216001Y3500D02*Y6000D01*
X221001Y3500D02*Y6000D01*
X226001Y3500D02*Y6000D01*
X231001Y3500D02*Y6000D01*
X236001Y3500D02*Y6000D01*
X241001Y3500D02*Y6000D01*
X246001Y3500D02*Y6000D01*
X251001Y3500D02*Y6000D01*
X256001Y3500D02*Y6000D01*
X261001Y3500D02*Y6000D01*
X266001Y3500D02*Y6000D01*
X271001Y3500D02*Y6000D01*
X276001Y3500D02*Y6000D01*
X281001Y3500D02*Y6000D01*
X286001Y3500D02*Y6000D01*
X291001Y3500D02*Y6000D01*
X296001Y3500D02*Y6000D01*
X301001Y3500D02*Y6000D01*
X306001Y3500D02*Y6000D01*
X311001Y3500D02*Y6000D01*
X316001Y3500D02*Y6000D01*
X321001Y3500D02*Y6000D01*
X326001Y3500D02*Y6000D01*
X331001Y3500D02*Y6000D01*
X336001Y3500D02*Y6000D01*
X341001Y3500D02*Y6000D01*
X346001Y3500D02*Y6000D01*
X351001Y3500D02*Y6000D01*
X356001Y3500D02*Y6000D01*
X361001Y3500D02*Y6000D01*
X366001Y3500D02*Y6000D01*
X371001Y3500D02*Y6000D01*
X376001Y3500D02*Y6000D01*
X381001Y3500D02*Y6000D01*
X386001Y3500D02*Y6000D01*
X391001Y3500D02*Y6000D01*
X396001Y3500D02*Y6000D01*
X401001Y3500D02*Y6000D01*
X406001Y3500D02*Y6000D01*
X411001Y3500D02*Y6000D01*
X416001Y3500D02*Y6000D01*
X421001Y3500D02*Y6000D01*
X426001Y3500D02*Y6000D01*
G54D12*X73000Y72625D02*X73875Y71750D01*
X73000Y77875D02*Y72625D01*
Y77875D02*X73875Y78750D01*
X75625D01*
X76500Y77875D01*
Y72625D01*
X75625Y71750D02*X76500Y72625D01*
X73875Y71750D02*X75625D01*
X73000Y73500D02*X76500Y77000D01*
X78600Y71750D02*X79475D01*
X81575Y78750D02*X85075D01*
X81575D02*Y75250D01*
X82450Y76125D01*
X84200D01*
X85075Y75250D01*
Y72625D01*
X84200Y71750D02*X85075Y72625D01*
X82450Y71750D02*X84200D01*
X81575Y72625D02*X82450Y71750D01*
X87175Y78750D02*Y77000D01*
X88925Y78750D02*Y77000D01*
X91025Y75250D02*X94525Y71750D01*
X91025D02*X94525Y75250D01*
X96625Y72625D02*X97500Y71750D01*
X96625Y77875D02*Y72625D01*
Y77875D02*X97500Y78750D01*
X99250D01*
X100125Y77875D01*
Y72625D01*
X99250Y71750D02*X100125Y72625D01*
X97500Y71750D02*X99250D01*
X96625Y73500D02*X100125Y77000D01*
X102225Y71750D02*X103100D01*
X105200Y78750D02*X108700D01*
X105200D02*Y75250D01*
X106075Y76125D01*
X107825D01*
X108700Y75250D01*
Y72625D01*
X107825Y71750D02*X108700Y72625D01*
X106075Y71750D02*X107825D01*
X105200Y72625D02*X106075Y71750D01*
X110800Y78750D02*Y77000D01*
X112550Y78750D02*Y77000D01*
X120662Y74000D02*Y70000D01*
Y74000D02*X122162Y72000D01*
X123662Y74000D01*
Y70000D01*
X126362Y72000D02*X126862Y71500D01*
X125362Y72000D02*X126362D01*
X124862Y71500D02*X125362Y72000D01*
X124862Y71500D02*Y70500D01*
X125362Y70000D01*
X126862Y72000D02*Y70500D01*
X127362Y70000D01*
X125362D02*X126362D01*
X126862Y70500D01*
X130562Y74000D02*Y70000D01*
X130062D02*X130562Y70500D01*
X129062Y70000D02*X130062D01*
X128562Y70500D02*X129062Y70000D01*
X128562Y71500D02*Y70500D01*
Y71500D02*X129062Y72000D01*
X130062D01*
X130562Y71500D01*
X132262Y70000D02*X133762D01*
X131762Y70500D02*X132262Y70000D01*
X131762Y71500D02*Y70500D01*
Y71500D02*X132262Y72000D01*
X133262D01*
X133762Y71500D01*
X131762Y71000D02*X133762D01*
Y71500D02*Y71000D01*
X136762Y72000D02*Y70500D01*
X137262Y70000D01*
X137762D01*
X138262Y70500D01*
Y72000D02*Y70500D01*
X138762Y70000D01*
X139262D01*
X139762Y70500D01*
Y72000D02*Y70500D01*
X140962Y73000D02*Y72900D01*
Y71500D02*Y70000D01*
X142462Y74000D02*Y70500D01*
X142962Y70000D01*
X141962Y72500D02*X142962D01*
X143962Y74000D02*Y70000D01*
Y71500D02*X144462Y72000D01*
X145462D01*
X145962Y71500D01*
Y70000D01*
X150462Y72000D02*X150962Y71500D01*
X149462Y72000D02*X150462D01*
X148962Y71500D02*X149462Y72000D01*
X148962Y71500D02*Y70500D01*
X149462Y70000D01*
X150462D01*
X150962Y70500D01*
X148962Y69000D02*X149462Y68500D01*
X150462D01*
X150962Y69000D01*
Y72000D02*Y69000D01*
X152162Y72200D02*X153662D01*
X152162Y70000D02*X154162D01*
X152162Y74000D02*Y70000D01*
Y74000D02*X154162D01*
X155862D02*Y70000D01*
X157162Y74000D02*X157862Y73300D01*
Y70700D01*
X157162Y70000D02*X157862Y70700D01*
X155362Y70000D02*X157162D01*
X155362Y74000D02*X157162D01*
X159062Y73000D02*Y70000D01*
Y73000D02*X159762Y74000D01*
X160862D01*
X161562Y73000D01*
Y70000D01*
X159062Y72000D02*X161562D01*
X164562Y70500D02*X165062Y70000D01*
X164562Y73500D02*Y72500D01*
Y73500D02*X165062Y74000D01*
X164562Y71500D02*X166062Y73000D01*
X165062Y70000D02*X165562D01*
X166562Y71000D01*
X164562Y72500D02*X167062Y70000D01*
X165062Y74000D02*X165562D01*
X166062Y73500D01*
Y73000D01*
X164562Y71500D02*Y70500D01*
X170562Y74000D02*Y70000D01*
X170062Y74000D02*X172062D01*
X172562Y73500D01*
Y72500D01*
X172062Y72000D02*X172562Y72500D01*
X170562Y72000D02*X172062D01*
X174462Y70000D02*X175762D01*
X173762Y70700D02*X174462Y70000D01*
X173762Y73300D02*Y70700D01*
Y73300D02*X174462Y74000D01*
X175762D01*
X176962Y70000D02*X178962D01*
X179462Y70500D01*
Y71700D02*Y70500D01*
X178962Y72200D02*X179462Y71700D01*
X177462Y72200D02*X178962D01*
X177462Y74000D02*Y70000D01*
X176962Y74000D02*X178962D01*
X179462Y73500D01*
Y72700D01*
X178962Y72200D02*X179462Y72700D01*
X101600Y37100D02*X104600Y40100D01*
X105800Y39600D02*Y36600D01*
Y39600D02*X106500Y40600D01*
X107600D01*
X108300Y39600D01*
Y36600D01*
X105800Y38600D02*X108300D01*
X109500Y39800D02*X110300Y40600D01*
Y36600D01*
X109500D02*X111000D01*
X112200Y37100D02*X112700Y36600D01*
X112200Y37900D02*Y37100D01*
Y37900D02*X112900Y38600D01*
X113500D01*
X114200Y37900D01*
Y37100D01*
X113700Y36600D02*X114200Y37100D01*
X112700Y36600D02*X113700D01*
X112200Y39300D02*X112900Y38600D01*
X112200Y40100D02*Y39300D01*
Y40100D02*X112700Y40600D01*
X113700D01*
X114200Y40100D01*
Y39300D01*
X113500Y38600D02*X114200Y39300D01*
X162200Y37000D02*X165200Y40000D01*
X166400Y39500D02*Y36500D01*
Y39500D02*X167100Y40500D01*
X168200D01*
X168900Y39500D01*
Y36500D01*
X166400Y38500D02*X168900D01*
X170100Y40000D02*X170600Y40500D01*
X172100D01*
X172600Y40000D01*
Y39000D01*
X170100Y36500D02*X172600Y39000D01*
X170100Y36500D02*X172600D01*
X173800Y37000D02*X174300Y36500D01*
X173800Y40000D02*Y37000D01*
Y40000D02*X174300Y40500D01*
X175300D01*
X175800Y40000D01*
Y37000D01*
X175300Y36500D02*X175800Y37000D01*
X174300Y36500D02*X175300D01*
X173800Y37500D02*X175800Y39500D01*
X131600Y37000D02*X134600Y40000D01*
X135800Y39500D02*Y36500D01*
Y39500D02*X136500Y40500D01*
X137600D01*
X138300Y39500D01*
Y36500D01*
X135800Y38500D02*X138300D01*
X139500Y39700D02*X140300Y40500D01*
Y36500D01*
X139500D02*X141000D01*
X142700D02*X144200Y38500D01*
Y40000D02*Y38500D01*
X143700Y40500D02*X144200Y40000D01*
X142700Y40500D02*X143700D01*
X142200Y40000D02*X142700Y40500D01*
X142200Y40000D02*Y39000D01*
X142700Y38500D01*
X144200D01*
X72500Y37000D02*X75500Y40000D01*
X76700Y39500D02*Y36500D01*
Y39500D02*X77400Y40500D01*
X78500D01*
X79200Y39500D01*
Y36500D01*
X76700Y38500D02*X79200D01*
X80400Y39700D02*X81200Y40500D01*
Y36500D01*
X80400D02*X81900D01*
X83600D02*X85600Y40500D01*
X83100D02*X85600D01*
X432320Y8283D02*X433820D01*
X432320Y6083D02*X434320D01*
X432320Y10083D02*Y6083D01*
Y10083D02*X434320D01*
X436020Y7583D02*Y6083D01*
Y7583D02*X436520Y8083D01*
X437020D01*
X437520Y7583D01*
Y6083D01*
X435520Y8083D02*X436020Y7583D01*
X440220Y8083D02*X440720Y7583D01*
X439220Y8083D02*X440220D01*
X438720Y7583D02*X439220Y8083D01*
X438720Y7583D02*Y6583D01*
X439220Y6083D01*
X440220D01*
X440720Y6583D01*
X438720Y5083D02*X439220Y4583D01*
X440220D01*
X440720Y5083D01*
Y8083D02*Y5083D01*
X441920Y10083D02*Y6583D01*
X442420Y6083D01*
X443420Y9083D02*Y8983D01*
Y7583D02*Y6083D01*
X444920D02*X446420D01*
X446920Y6583D01*
X446420Y7083D02*X446920Y6583D01*
X444920Y7083D02*X446420D01*
X444420Y7583D02*X444920Y7083D01*
X444420Y7583D02*X444920Y8083D01*
X446420D01*
X446920Y7583D01*
X444420Y6583D02*X444920Y6083D01*
X448120Y10083D02*Y6083D01*
Y7583D02*X448620Y8083D01*
X449620D01*
X450120Y7583D01*
Y6083D01*
X414700Y63000D02*X416000D01*
X414000Y63700D02*X414700Y63000D01*
X414000Y66300D02*Y63700D01*
Y66300D02*X414700Y67000D01*
X416000D01*
X417200Y64500D02*Y63500D01*
Y64500D02*X417700Y65000D01*
X418700D01*
X419200Y64500D01*
Y63500D01*
X418700Y63000D02*X419200Y63500D01*
X417700Y63000D02*X418700D01*
X417200Y63500D02*X417700Y63000D01*
X420900Y64500D02*Y61500D01*
X420400Y65000D02*X420900Y64500D01*
X421400Y65000D01*
X422400D01*
X422900Y64500D01*
Y63500D01*
X422400Y63000D02*X422900Y63500D01*
X421400Y63000D02*X422400D01*
X420900Y63500D02*X421400Y63000D01*
X424600Y64500D02*Y61500D01*
X424100Y65000D02*X424600Y64500D01*
X425100Y65000D01*
X426100D01*
X426600Y64500D01*
Y63500D01*
X426100Y63000D02*X426600Y63500D01*
X425100Y63000D02*X426100D01*
X424600Y63500D02*X425100Y63000D01*
X428300D02*X429800D01*
X427800Y63500D02*X428300Y63000D01*
X427800Y64500D02*Y63500D01*
Y64500D02*X428300Y65000D01*
X429300D01*
X429800Y64500D01*
X427800Y64000D02*X429800D01*
Y64500D02*Y64000D01*
X431500Y64500D02*Y63000D01*
Y64500D02*X432000Y65000D01*
X433000D01*
X431000D02*X431500Y64500D01*
X438000Y99000D02*Y95000D01*
Y97000D02*X440000Y99000D01*
X438000Y97000D02*X440000Y95000D01*
X441700D02*X443200D01*
X441200Y95500D02*X441700Y95000D01*
X441200Y96500D02*Y95500D01*
Y96500D02*X441700Y97000D01*
X442700D01*
X443200Y96500D01*
X441200Y96000D02*X443200D01*
Y96500D02*Y96000D01*
X444400Y97000D02*Y95500D01*
X444900Y95000D01*
X446400Y97000D02*Y94000D01*
X445900Y93500D02*X446400Y94000D01*
X444900Y93500D02*X445900D01*
X444400Y94000D02*X444900Y93500D01*
Y95000D02*X445900D01*
X446400Y95500D01*
X446000Y66000D02*Y63000D01*
Y66000D02*X446700Y67000D01*
X447800D01*
X448500Y66000D01*
Y63000D01*
X446000Y65000D02*X448500D01*
X449700Y66200D02*X450500Y67000D01*
Y63000D01*
X449700D02*X451200D01*
X452900D02*X454900Y67000D01*
X452400D02*X454900D01*
X456100Y65000D02*X458100D01*
X459300Y66000D02*Y63000D01*
Y66000D02*X460000Y67000D01*
X461100D01*
X461800Y66000D01*
Y63000D01*
X459300Y65000D02*X461800D01*
X463000Y66500D02*X463500Y67000D01*
X464500D01*
X465000Y66500D01*
X464500Y63000D02*X465000Y63500D01*
X463500Y63000D02*X464500D01*
X463000Y63500D02*X463500Y63000D01*
Y65200D02*X464500D01*
X465000Y66500D02*Y65700D01*
Y64700D02*Y63500D01*
Y64700D02*X464500Y65200D01*
X465000Y65700D02*X464500Y65200D01*
X466200Y66500D02*X466700Y67000D01*
X468200D01*
X468700Y66500D01*
Y65500D01*
X466200Y63000D02*X468700Y65500D01*
X466200Y63000D02*X468700D01*
X416572Y147091D02*Y143091D01*
Y147091D02*X418072Y145091D01*
X419572Y147091D01*
Y143091D01*
X421272D02*X422772D01*
X420772Y143591D02*X421272Y143091D01*
X420772Y144591D02*Y143591D01*
Y144591D02*X421272Y145091D01*
X422272D01*
X422772Y144591D01*
X420772Y144091D02*X422772D01*
Y144591D02*Y144091D01*
X424472Y147091D02*Y143591D01*
X424972Y143091D01*
X423972Y145591D02*X424972D01*
X426472Y144591D02*Y143091D01*
Y144591D02*X426972Y145091D01*
X427972D01*
X425972D02*X426472Y144591D01*
X429172Y146091D02*Y145991D01*
Y144591D02*Y143091D01*
X430672Y145091D02*X432172D01*
X430172Y144591D02*X430672Y145091D01*
X430172Y144591D02*Y143591D01*
X430672Y143091D01*
X432172D01*
X414000Y88000D02*X416000D01*
X415000D02*Y84000D01*
X417700D02*X419200D01*
X417200Y84500D02*X417700Y84000D01*
X417200Y85500D02*Y84500D01*
Y85500D02*X417700Y86000D01*
X418700D01*
X419200Y85500D01*
X417200Y85000D02*X419200D01*
Y85500D02*Y85000D01*
X371100Y106100D02*X374100Y109100D01*
X375300Y108600D02*Y105600D01*
Y108600D02*X376000Y109600D01*
X377100D01*
X377800Y108600D01*
Y105600D01*
X375300Y107600D02*X377800D01*
X379000Y109100D02*X379500Y109600D01*
X380500D01*
X381000Y109100D01*
X380500Y105600D02*X381000Y106100D01*
X379500Y105600D02*X380500D01*
X379000Y106100D02*X379500Y105600D01*
Y107800D02*X380500D01*
X381000Y109100D02*Y108300D01*
Y107300D02*Y106100D01*
Y107300D02*X380500Y107800D01*
X381000Y108300D02*X380500Y107800D01*
X382200Y106100D02*X382700Y105600D01*
X382200Y109100D02*Y106100D01*
Y109100D02*X382700Y109600D01*
X383700D01*
X384200Y109100D01*
Y106100D01*
X383700Y105600D02*X384200Y106100D01*
X382700Y105600D02*X383700D01*
X382200Y106600D02*X384200Y108600D01*
X400000Y106000D02*X403000Y109000D01*
X404200Y108500D02*Y105500D01*
Y108500D02*X404900Y109500D01*
X406000D01*
X406700Y108500D01*
Y105500D01*
X404200Y107500D02*X406700D01*
X407900Y109000D02*X408400Y109500D01*
X409400D01*
X409900Y109000D01*
X409400Y105500D02*X409900Y106000D01*
X408400Y105500D02*X409400D01*
X407900Y106000D02*X408400Y105500D01*
Y107700D02*X409400D01*
X409900Y109000D02*Y108200D01*
Y107200D02*Y106000D01*
Y107200D02*X409400Y107700D01*
X409900Y108200D02*X409400Y107700D01*
X411100Y109000D02*X411600Y109500D01*
X413100D01*
X413600Y109000D01*
Y108000D01*
X411100Y105500D02*X413600Y108000D01*
X411100Y105500D02*X413600D01*
X341600Y37000D02*X344600Y40000D01*
X345800Y39500D02*Y36500D01*
Y39500D02*X346500Y40500D01*
X347600D01*
X348300Y39500D01*
Y36500D01*
X345800Y38500D02*X348300D01*
X349500Y40000D02*X350000Y40500D01*
X351500D01*
X352000Y40000D01*
Y39000D01*
X349500Y36500D02*X352000Y39000D01*
X349500Y36500D02*X352000D01*
X353700D02*X355700Y40500D01*
X353200D02*X355700D01*
X368600Y37000D02*X371600Y40000D01*
X372800Y39500D02*Y36500D01*
Y39500D02*X373500Y40500D01*
X374600D01*
X375300Y39500D01*
Y36500D01*
X372800Y38500D02*X375300D01*
X376500Y40000D02*X377000Y40500D01*
X378500D01*
X379000Y40000D01*
Y39000D01*
X376500Y36500D02*X379000Y39000D01*
X376500Y36500D02*X379000D01*
X380700D02*X382200Y38500D01*
Y40000D02*Y38500D01*
X381700Y40500D02*X382200Y40000D01*
X380700Y40500D02*X381700D01*
X380200Y40000D02*X380700Y40500D01*
X380200Y40000D02*Y39000D01*
X380700Y38500D01*
X382200D01*
X403000Y37000D02*X406000Y40000D01*
X407200Y39500D02*Y36500D01*
Y39500D02*X407900Y40500D01*
X409000D01*
X409700Y39500D01*
Y36500D01*
X407200Y38500D02*X409700D01*
X410900Y40000D02*X411400Y40500D01*
X412400D01*
X412900Y40000D01*
X412400Y36500D02*X412900Y37000D01*
X411400Y36500D02*X412400D01*
X410900Y37000D02*X411400Y36500D01*
Y38700D02*X412400D01*
X412900Y40000D02*Y39200D01*
Y38200D02*Y37000D01*
Y38200D02*X412400Y38700D01*
X412900Y39200D02*X412400Y38700D01*
X414100Y39700D02*X414900Y40500D01*
Y36500D01*
X414100D02*X415600D01*
X309600Y106100D02*X312600Y109100D01*
X313800Y108600D02*Y105600D01*
Y108600D02*X314500Y109600D01*
X315600D01*
X316300Y108600D01*
Y105600D01*
X313800Y107600D02*X316300D01*
X317500Y109100D02*X318000Y109600D01*
X319500D01*
X320000Y109100D01*
Y108100D01*
X317500Y105600D02*X320000Y108100D01*
X317500Y105600D02*X320000D01*
X322700Y109600D02*X323200Y109100D01*
X321700Y109600D02*X322700D01*
X321200Y109100D02*X321700Y109600D01*
X321200Y109100D02*Y106100D01*
X321700Y105600D01*
X322700Y107800D02*X323200Y107300D01*
X321200Y107800D02*X322700D01*
X321700Y105600D02*X322700D01*
X323200Y106100D01*
Y107300D02*Y106100D01*
X249400Y106000D02*X252400Y109000D01*
X253600Y108500D02*Y105500D01*
Y108500D02*X254300Y109500D01*
X255400D01*
X256100Y108500D01*
Y105500D01*
X253600Y107500D02*X256100D01*
X257300Y109000D02*X257800Y109500D01*
X259300D01*
X259800Y109000D01*
Y108000D01*
X257300Y105500D02*X259800Y108000D01*
X257300Y105500D02*X259800D01*
X261000Y109000D02*X261500Y109500D01*
X263000D01*
X263500Y109000D01*
Y108000D01*
X261000Y105500D02*X263500Y108000D01*
X261000Y105500D02*X263500D01*
X279800Y106000D02*X282800Y109000D01*
X284000Y108500D02*Y105500D01*
Y108500D02*X284700Y109500D01*
X285800D01*
X286500Y108500D01*
Y105500D01*
X284000Y107500D02*X286500D01*
X287700Y109000D02*X288200Y109500D01*
X289700D01*
X290200Y109000D01*
Y108000D01*
X287700Y105500D02*X290200Y108000D01*
X287700Y105500D02*X290200D01*
X291400Y107000D02*X293400Y109500D01*
X291400Y107000D02*X293900D01*
X293400Y109500D02*Y105500D01*
X250400Y37100D02*X253400Y40100D01*
X254600Y39600D02*Y36600D01*
Y39600D02*X255300Y40600D01*
X256400D01*
X257100Y39600D01*
Y36600D01*
X254600Y38600D02*X257100D01*
X258300Y40100D02*X258800Y40600D01*
X260300D01*
X260800Y40100D01*
Y39100D01*
X258300Y36600D02*X260800Y39100D01*
X258300Y36600D02*X260800D01*
X262000Y39800D02*X262800Y40600D01*
Y36600D01*
X262000D02*X263500D01*
X281900Y37100D02*X284900Y40100D01*
X286100Y39600D02*Y36600D01*
Y39600D02*X286800Y40600D01*
X287900D01*
X288600Y39600D01*
Y36600D01*
X286100Y38600D02*X288600D01*
X289800Y40100D02*X290300Y40600D01*
X291800D01*
X292300Y40100D01*
Y39100D01*
X289800Y36600D02*X292300Y39100D01*
X289800Y36600D02*X292300D01*
X293500Y40100D02*X294000Y40600D01*
X295000D01*
X295500Y40100D01*
X295000Y36600D02*X295500Y37100D01*
X294000Y36600D02*X295000D01*
X293500Y37100D02*X294000Y36600D01*
Y38800D02*X295000D01*
X295500Y40100D02*Y39300D01*
Y38300D02*Y37100D01*
Y38300D02*X295000Y38800D01*
X295500Y39300D02*X295000Y38800D01*
X311500Y37000D02*X314500Y40000D01*
X315700Y39500D02*Y36500D01*
Y39500D02*X316400Y40500D01*
X317500D01*
X318200Y39500D01*
Y36500D01*
X315700Y38500D02*X318200D01*
X319400Y40000D02*X319900Y40500D01*
X321400D01*
X321900Y40000D01*
Y39000D01*
X319400Y36500D02*X321900Y39000D01*
X319400Y36500D02*X321900D01*
X323100Y40500D02*X325100D01*
X323100D02*Y38500D01*
X323600Y39000D01*
X324600D01*
X325100Y38500D01*
Y37000D01*
X324600Y36500D02*X325100Y37000D01*
X323600Y36500D02*X324600D01*
X323100Y37000D02*X323600Y36500D01*
X340000Y106100D02*X343000Y109100D01*
X344200Y108600D02*Y105600D01*
Y108600D02*X344900Y109600D01*
X346000D01*
X346700Y108600D01*
Y105600D01*
X344200Y107600D02*X346700D01*
X347900Y109100D02*X348400Y109600D01*
X349900D01*
X350400Y109100D01*
Y108100D01*
X347900Y105600D02*X350400Y108100D01*
X347900Y105600D02*X350400D01*
X351600Y106100D02*X352100Y105600D01*
X351600Y106900D02*Y106100D01*
Y106900D02*X352300Y107600D01*
X352900D01*
X353600Y106900D01*
Y106100D01*
X353100Y105600D02*X353600Y106100D01*
X352100Y105600D02*X353100D01*
X351600Y108300D02*X352300Y107600D01*
X351600Y109100D02*Y108300D01*
Y109100D02*X352100Y109600D01*
X353100D01*
X353600Y109100D01*
Y108300D01*
X352900Y107600D02*X353600Y108300D01*
G54D13*X27000Y14504D03*
G54D14*Y46000D03*
X41961D03*
X34480Y51000D03*
X19520D03*
X27000Y56000D03*
X41961D03*
G54D13*X27000Y137496D03*
G54D14*X34480Y61000D03*
Y71000D03*
Y81000D03*
Y91000D03*
Y101000D03*
X19520Y61000D03*
Y71000D03*
Y81000D03*
Y91000D03*
Y101000D03*
X27000Y66000D03*
Y76000D03*
Y86000D03*
Y96000D03*
Y106000D03*
X41961Y66000D03*
Y76000D03*
Y86000D03*
Y96000D03*
Y106000D03*
G54D15*X433851Y28500D02*X440150D01*
X403871Y28520D02*X410170D01*
X373871D02*X380170D01*
X343871D02*X350170D01*
X433891Y123539D02*X440190D01*
X403891Y123538D02*X410190D01*
X373891D02*X380190D01*
X343891D02*X350190D01*
X253891D02*X260190D01*
X313871Y28520D02*X320170D01*
X283871D02*X290170D01*
X313871Y123519D02*X320170D01*
X283891Y123538D02*X290190D01*
X253871Y28520D02*X260170D01*
X223890Y28500D02*X230189D01*
X163871Y28520D02*X170170D01*
X193891Y28540D02*X200190D01*
X133871Y28520D02*X140170D01*
X103870D02*X110169D01*
X73871D02*X80170D01*
X223871Y123519D02*X230170D01*
X193891Y123538D02*X200190D01*
X163891D02*X170190D01*
X133891D02*X140190D01*
X103891D02*X110190D01*
X73891D02*X80190D01*
G54D16*X65500Y127000D03*
X56500Y120000D03*
X77040Y123538D03*
X59499Y46000D03*
X84500Y51000D03*
X47501Y33000D03*
X51501Y37000D03*
X47501Y24000D03*
X137040Y123538D03*
X197040D03*
X257040D03*
X227020Y123519D03*
X393501Y31000D03*
G54D13*X461383Y14504D03*
G54D16*X410000Y65000D03*
X272501Y49000D03*
X273501Y31000D03*
X437041Y123539D03*
X377040Y123538D03*
X368000Y106000D03*
G54D13*X461383Y137496D03*
G54D16*X154501Y111000D03*
X159540Y66000D03*
X134500Y61000D03*
X109500Y56000D03*
X359501Y106000D03*
X334500Y101000D03*
X303501Y49000D03*
Y64000D03*
X309500Y96000D03*
X284500Y91000D03*
X259500Y86000D03*
X272501Y64000D03*
X234500Y81000D03*
X209500Y76000D03*
X184500Y71000D03*
G54D17*G54D18*G54D17*G54D18*G54D17*G54D18*G54D19*G54D18*G54D19*M02*
