G04 start of page 10 for group -3984 idx -3984 *
G04 Title: (unknown), fab *
G04 Creator: pcb 20110918 *
G04 CreationDate: Wed Jul 18 21:40:28 2012 UTC *
G04 For: fosse *
G04 Format: Gerber/RS-274X *
G04 PCB-Dimensions: 476000 152000 *
G04 PCB-Coordinate-Origin: lower left *
%MOIN*%
%FSLAX25Y25*%
%LNFAB*%
%ADD78C,0.0100*%
%ADD77C,0.0075*%
%ADD76C,0.0060*%
%ADD75C,0.0001*%
G54D75*G36*
X25800Y139262D02*X28766Y136296D01*
X28200Y135730D01*
X25234Y138696D01*
X25800Y139262D01*
G37*
G36*
X25234Y136296D02*X28200Y139262D01*
X28766Y138696D01*
X25800Y135730D01*
X25234Y136296D01*
G37*
G36*
X25800Y16270D02*X28766Y13304D01*
X28200Y12738D01*
X25234Y15704D01*
X25800Y16270D01*
G37*
G36*
X25234Y13304D02*X28200Y16270D01*
X28766Y15704D01*
X25800Y12738D01*
X25234Y13304D01*
G37*
G36*
X460183Y139262D02*X463149Y136296D01*
X462583Y135730D01*
X459617Y138696D01*
X460183Y139262D01*
G37*
G36*
X459617Y136296D02*X462583Y139262D01*
X463149Y138696D01*
X460183Y135730D01*
X459617Y136296D01*
G37*
G36*
X460183Y16270D02*X463149Y13304D01*
X462583Y12738D01*
X459617Y15704D01*
X460183Y16270D01*
G37*
G36*
X459617Y13304D02*X462583Y16270D01*
X463149Y15704D01*
X460183Y12738D01*
X459617Y13304D01*
G37*
G36*
X13800Y180016D02*X16766Y177050D01*
X16200Y176484D01*
X13234Y179450D01*
X13800Y180016D01*
G37*
G36*
X13234Y177050D02*X16200Y180016D01*
X16766Y179450D01*
X13800Y176484D01*
X13234Y177050D01*
G37*
G54D76*X135000Y180500D02*X136500Y177500D01*
X138000Y180500D01*
X136500Y177500D02*Y174500D01*
X139800Y177800D02*X142050D01*
X139800Y174500D02*X142800D01*
X139800Y180500D02*Y174500D01*
Y180500D02*X142800D01*
X147600D02*X148350Y179750D01*
X145350Y180500D02*X147600D01*
X144600Y179750D02*X145350Y180500D01*
X144600Y179750D02*Y178250D01*
X145350Y177500D01*
X147600D01*
X148350Y176750D01*
Y175250D01*
X147600Y174500D02*X148350Y175250D01*
X145350Y174500D02*X147600D01*
X144600Y175250D02*X145350Y174500D01*
X98000Y176750D02*X101000Y180500D01*
X98000Y176750D02*X101750D01*
X101000Y180500D02*Y174500D01*
X45000Y175250D02*X45750Y174500D01*
X45000Y179750D02*Y175250D01*
Y179750D02*X45750Y180500D01*
X47250D01*
X48000Y179750D01*
Y175250D01*
X47250Y174500D02*X48000Y175250D01*
X45750Y174500D02*X47250D01*
X45000Y176000D02*X48000Y179000D01*
X49800Y174500D02*X50550D01*
X52350Y179300D02*X53550Y180500D01*
Y174500D01*
X52350D02*X54600D01*
X56400Y175250D02*X57150Y174500D01*
X56400Y179750D02*Y175250D01*
Y179750D02*X57150Y180500D01*
X58650D01*
X59400Y179750D01*
Y175250D01*
X58650Y174500D02*X59400Y175250D01*
X57150Y174500D02*X58650D01*
X56400Y176000D02*X59400Y179000D01*
X61950Y174500D02*X64200Y177500D01*
Y179750D02*Y177500D01*
X63450Y180500D02*X64200Y179750D01*
X61950Y180500D02*X63450D01*
X61200Y179750D02*X61950Y180500D01*
X61200Y179750D02*Y178250D01*
X61950Y177500D01*
X64200D01*
X27000Y47600D02*Y44400D01*
X25400Y46000D02*X28600D01*
X41961Y47600D02*Y44400D01*
X40361Y46000D02*X43561D01*
X34480Y52600D02*Y49400D01*
X32880Y51000D02*X36080D01*
X19520Y52600D02*Y49400D01*
X17920Y51000D02*X21120D01*
X27000Y57600D02*Y54400D01*
X25400Y56000D02*X28600D01*
X41961Y57600D02*Y54400D01*
X40361Y56000D02*X43561D01*
X34480Y62600D02*Y59400D01*
X32880Y61000D02*X36080D01*
X19520Y62600D02*Y59400D01*
X17920Y61000D02*X21120D01*
X27000Y67600D02*Y64400D01*
X25400Y66000D02*X28600D01*
X41961Y67600D02*Y64400D01*
X40361Y66000D02*X43561D01*
X34480Y72600D02*Y69400D01*
X32880Y71000D02*X36080D01*
X19520Y72600D02*Y69400D01*
X17920Y71000D02*X21120D01*
X27000Y77600D02*Y74400D01*
X25400Y76000D02*X28600D01*
X41961Y77600D02*Y74400D01*
X40361Y76000D02*X43561D01*
X34480Y82600D02*Y79400D01*
X32880Y81000D02*X36080D01*
X19520Y82600D02*Y79400D01*
X17920Y81000D02*X21120D01*
X27000Y87600D02*Y84400D01*
X25400Y86000D02*X28600D01*
X41961Y87600D02*Y84400D01*
X40361Y86000D02*X43561D01*
X34480Y92600D02*Y89400D01*
X32880Y91000D02*X36080D01*
X19520Y92600D02*Y89400D01*
X17920Y91000D02*X21120D01*
X27000Y97600D02*Y94400D01*
X25400Y96000D02*X28600D01*
X41961Y97600D02*Y94400D01*
X40361Y96000D02*X43561D01*
X34480Y102600D02*Y99400D01*
X32880Y101000D02*X36080D01*
X19520Y102600D02*Y99400D01*
X17920Y101000D02*X21120D01*
X27000Y107600D02*Y104400D01*
X25400Y106000D02*X28600D01*
X41961Y107600D02*Y104400D01*
X40361Y106000D02*X43561D01*
X15000Y194850D02*Y191650D01*
X13400Y193250D02*X16600D01*
X135000Y195500D02*X136500Y192500D01*
X138000Y195500D01*
X136500Y192500D02*Y189500D01*
X139800Y192800D02*X142050D01*
X139800Y189500D02*X142800D01*
X139800Y195500D02*Y189500D01*
Y195500D02*X142800D01*
X147600D02*X148350Y194750D01*
X145350Y195500D02*X147600D01*
X144600Y194750D02*X145350Y195500D01*
X144600Y194750D02*Y193250D01*
X145350Y192500D01*
X147600D01*
X148350Y191750D01*
Y190250D01*
X147600Y189500D02*X148350Y190250D01*
X145350Y189500D02*X147600D01*
X144600Y190250D02*X145350Y189500D01*
X98000Y194750D02*X98750Y195500D01*
X101000D01*
X101750Y194750D01*
Y193250D01*
X98000Y189500D02*X101750Y193250D01*
X98000Y189500D02*X101750D01*
X105800Y195500D02*X106550Y194750D01*
X104300Y195500D02*X105800D01*
X103550Y194750D02*X104300Y195500D01*
X103550Y194750D02*Y190250D01*
X104300Y189500D01*
X105800Y192800D02*X106550Y192050D01*
X103550Y192800D02*X105800D01*
X104300Y189500D02*X105800D01*
X106550Y190250D01*
Y192050D02*Y190250D01*
X45000D02*X45750Y189500D01*
X45000Y194750D02*Y190250D01*
Y194750D02*X45750Y195500D01*
X47250D01*
X48000Y194750D01*
Y190250D01*
X47250Y189500D02*X48000Y190250D01*
X45750Y189500D02*X47250D01*
X45000Y191000D02*X48000Y194000D01*
X49800Y189500D02*X50550D01*
X52350Y190250D02*X53100Y189500D01*
X52350Y194750D02*Y190250D01*
Y194750D02*X53100Y195500D01*
X54600D01*
X55350Y194750D01*
Y190250D01*
X54600Y189500D02*X55350Y190250D01*
X53100Y189500D02*X54600D01*
X52350Y191000D02*X55350Y194000D01*
X57150Y194750D02*X57900Y195500D01*
X59400D01*
X60150Y194750D01*
X59400Y189500D02*X60150Y190250D01*
X57900Y189500D02*X59400D01*
X57150Y190250D02*X57900Y189500D01*
Y192800D02*X59400D01*
X60150Y194750D02*Y193550D01*
Y192050D02*Y190250D01*
Y192050D02*X59400Y192800D01*
X60150Y193550D02*X59400Y192800D01*
X61950Y191750D02*X64950Y195500D01*
X61950Y191750D02*X65700D01*
X64950Y195500D02*Y189500D01*
X65500Y127000D02*Y125400D01*
Y127000D02*X66887Y127800D01*
X65500Y127000D02*X64113Y127800D01*
X56500Y120000D02*Y118400D01*
Y120000D02*X57887Y120800D01*
X56500Y120000D02*X55113Y120800D01*
X77040Y123538D02*Y121938D01*
Y123538D02*X78427Y124338D01*
X77040Y123538D02*X75653Y124338D01*
X137040Y123538D02*Y121938D01*
Y123538D02*X138427Y124338D01*
X137040Y123538D02*X135653Y124338D01*
X197040Y123538D02*Y121938D01*
Y123538D02*X198427Y124338D01*
X197040Y123538D02*X195653Y124338D01*
X257040Y123538D02*Y121938D01*
Y123538D02*X258427Y124338D01*
X257040Y123538D02*X255653Y124338D01*
X227020Y123519D02*Y121919D01*
Y123519D02*X228407Y124319D01*
X227020Y123519D02*X225633Y124319D01*
X154501Y111000D02*Y109400D01*
Y111000D02*X155888Y111800D01*
X154501Y111000D02*X153114Y111800D01*
X359501Y106000D02*Y104400D01*
Y106000D02*X360888Y106800D01*
X359501Y106000D02*X358114Y106800D01*
X334500Y101000D02*Y99400D01*
Y101000D02*X335887Y101800D01*
X334500Y101000D02*X333113Y101800D01*
X309500Y96000D02*Y94400D01*
Y96000D02*X310887Y96800D01*
X309500Y96000D02*X308113Y96800D01*
X284500Y91000D02*Y89400D01*
Y91000D02*X285887Y91800D01*
X284500Y91000D02*X283113Y91800D01*
X259500Y86000D02*Y84400D01*
Y86000D02*X260887Y86800D01*
X259500Y86000D02*X258113Y86800D01*
X234500Y81000D02*Y79400D01*
Y81000D02*X235887Y81800D01*
X234500Y81000D02*X233113Y81800D01*
X209500Y76000D02*Y74400D01*
Y76000D02*X210887Y76800D01*
X209500Y76000D02*X208113Y76800D01*
X184500Y71000D02*Y69400D01*
Y71000D02*X185887Y71800D01*
X184500Y71000D02*X183113Y71800D01*
X159540Y66000D02*Y64400D01*
Y66000D02*X160927Y66800D01*
X159540Y66000D02*X158153Y66800D01*
X134500Y61000D02*Y59400D01*
Y61000D02*X135887Y61800D01*
X134500Y61000D02*X133113Y61800D01*
X109500Y56000D02*Y54400D01*
Y56000D02*X110887Y56800D01*
X109500Y56000D02*X108113Y56800D01*
X59499Y46000D02*Y44400D01*
Y46000D02*X60886Y46800D01*
X59499Y46000D02*X58112Y46800D01*
X84500Y51000D02*Y49400D01*
Y51000D02*X85887Y51800D01*
X84500Y51000D02*X83113Y51800D01*
X47501Y33000D02*Y31400D01*
Y33000D02*X48888Y33800D01*
X47501Y33000D02*X46114Y33800D01*
X51501Y37000D02*Y35400D01*
Y37000D02*X52888Y37800D01*
X51501Y37000D02*X50114Y37800D01*
X47501Y24000D02*Y22400D01*
Y24000D02*X48888Y24800D01*
X47501Y24000D02*X46114Y24800D01*
X393501Y31000D02*Y29400D01*
Y31000D02*X394888Y31800D01*
X393501Y31000D02*X392114Y31800D01*
X303501Y49000D02*Y47400D01*
Y49000D02*X304888Y49800D01*
X303501Y49000D02*X302114Y49800D01*
X303501Y64000D02*Y62400D01*
Y64000D02*X304888Y64800D01*
X303501Y64000D02*X302114Y64800D01*
X272501Y64000D02*Y62400D01*
Y64000D02*X273888Y64800D01*
X272501Y64000D02*X271114Y64800D01*
X272501Y49000D02*Y47400D01*
Y49000D02*X273888Y49800D01*
X272501Y49000D02*X271114Y49800D01*
X273501Y31000D02*Y29400D01*
Y31000D02*X274888Y31800D01*
X273501Y31000D02*X272114Y31800D01*
X437041Y123539D02*Y121939D01*
Y123539D02*X438428Y124339D01*
X437041Y123539D02*X435654Y124339D01*
X377040Y123538D02*Y121938D01*
Y123538D02*X378427Y124338D01*
X377040Y123538D02*X375654Y124338D01*
X368000Y106000D02*Y104400D01*
Y106000D02*X369387Y106800D01*
X368000Y106000D02*X366613Y106800D01*
X410000Y65000D02*Y63400D01*
Y65000D02*X411387Y65800D01*
X410000Y65000D02*X408613Y65800D01*
X15000Y208250D02*Y206650D01*
Y208250D02*X16387Y209050D01*
X15000Y208250D02*X13613Y209050D01*
X135000Y210500D02*X136500Y207500D01*
X138000Y210500D01*
X136500Y207500D02*Y204500D01*
X139800Y207800D02*X142050D01*
X139800Y204500D02*X142800D01*
X139800Y210500D02*Y204500D01*
Y210500D02*X142800D01*
X147600D02*X148350Y209750D01*
X145350Y210500D02*X147600D01*
X144600Y209750D02*X145350Y210500D01*
X144600Y209750D02*Y208250D01*
X145350Y207500D01*
X147600D01*
X148350Y206750D01*
Y205250D01*
X147600Y204500D02*X148350Y205250D01*
X145350Y204500D02*X147600D01*
X144600Y205250D02*X145350Y204500D01*
X98000Y209750D02*X98750Y210500D01*
X100250D01*
X101000Y209750D01*
X100250Y204500D02*X101000Y205250D01*
X98750Y204500D02*X100250D01*
X98000Y205250D02*X98750Y204500D01*
Y207800D02*X100250D01*
X101000Y209750D02*Y208550D01*
Y207050D02*Y205250D01*
Y207050D02*X100250Y207800D01*
X101000Y208550D02*X100250Y207800D01*
X102800Y206750D02*X105800Y210500D01*
X102800Y206750D02*X106550D01*
X105800Y210500D02*Y204500D01*
X45000Y205250D02*X45750Y204500D01*
X45000Y209750D02*Y205250D01*
Y209750D02*X45750Y210500D01*
X47250D01*
X48000Y209750D01*
Y205250D01*
X47250Y204500D02*X48000Y205250D01*
X45750Y204500D02*X47250D01*
X45000Y206000D02*X48000Y209000D01*
X49800Y204500D02*X50550D01*
X52350Y205250D02*X53100Y204500D01*
X52350Y209750D02*Y205250D01*
Y209750D02*X53100Y210500D01*
X54600D01*
X55350Y209750D01*
Y205250D01*
X54600Y204500D02*X55350Y205250D01*
X53100Y204500D02*X54600D01*
X52350Y206000D02*X55350Y209000D01*
X57150Y209750D02*X57900Y210500D01*
X60150D01*
X60900Y209750D01*
Y208250D01*
X57150Y204500D02*X60900Y208250D01*
X57150Y204500D02*X60900D01*
X62700Y205250D02*X63450Y204500D01*
X62700Y209750D02*Y205250D01*
Y209750D02*X63450Y210500D01*
X64950D01*
X65700Y209750D01*
Y205250D01*
X64950Y204500D02*X65700Y205250D01*
X63450Y204500D02*X64950D01*
X62700Y206000D02*X65700Y209000D01*
X3000Y225500D02*X3750Y224750D01*
X750Y225500D02*X3000D01*
X0Y224750D02*X750Y225500D01*
X0Y224750D02*Y223250D01*
X750Y222500D01*
X3000D01*
X3750Y221750D01*
Y220250D01*
X3000Y219500D02*X3750Y220250D01*
X750Y219500D02*X3000D01*
X0Y220250D02*X750Y219500D01*
X5550Y222500D02*Y220250D01*
X6300Y219500D01*
X8550Y222500D02*Y218000D01*
X7800Y217250D02*X8550Y218000D01*
X6300Y217250D02*X7800D01*
X5550Y218000D02*X6300Y217250D01*
Y219500D02*X7800D01*
X8550Y220250D01*
X11100Y221750D02*Y219500D01*
Y221750D02*X11850Y222500D01*
X12600D01*
X13350Y221750D01*
Y219500D01*
Y221750D02*X14100Y222500D01*
X14850D01*
X15600Y221750D01*
Y219500D01*
X10350Y222500D02*X11100Y221750D01*
X17400Y225500D02*Y219500D01*
Y220250D02*X18150Y219500D01*
X19650D01*
X20400Y220250D01*
Y221750D02*Y220250D01*
X19650Y222500D02*X20400Y221750D01*
X18150Y222500D02*X19650D01*
X17400Y221750D02*X18150Y222500D01*
X22200Y221750D02*Y220250D01*
Y221750D02*X22950Y222500D01*
X24450D01*
X25200Y221750D01*
Y220250D01*
X24450Y219500D02*X25200Y220250D01*
X22950Y219500D02*X24450D01*
X22200Y220250D02*X22950Y219500D01*
X27000Y225500D02*Y220250D01*
X27750Y219500D01*
X0Y216250D02*X29250D01*
X41750Y225500D02*Y219500D01*
X43700Y225500D02*X44750Y224450D01*
Y220550D01*
X43700Y219500D02*X44750Y220550D01*
X41000Y219500D02*X43700D01*
X41000Y225500D02*X43700D01*
G54D77*X46550Y224000D02*Y223850D01*
G54D76*Y221750D02*Y219500D01*
X50300Y222500D02*X51050Y221750D01*
X48800Y222500D02*X50300D01*
X48050Y221750D02*X48800Y222500D01*
X48050Y221750D02*Y220250D01*
X48800Y219500D01*
X51050Y222500D02*Y220250D01*
X51800Y219500D01*
X48800D02*X50300D01*
X51050Y220250D01*
X54350Y221750D02*Y219500D01*
Y221750D02*X55100Y222500D01*
X55850D01*
X56600Y221750D01*
Y219500D01*
Y221750D02*X57350Y222500D01*
X58100D01*
X58850Y221750D01*
Y219500D01*
X53600Y222500D02*X54350Y221750D01*
X60650Y219500D02*X61400D01*
X65900Y220250D02*X66650Y219500D01*
X65900Y224750D02*X66650Y225500D01*
X65900Y224750D02*Y220250D01*
X68450Y225500D02*X69950D01*
X69200D02*Y219500D01*
X68450D02*X69950D01*
X72500Y221750D02*Y219500D01*
Y221750D02*X73250Y222500D01*
X74000D01*
X74750Y221750D01*
Y219500D01*
X71750Y222500D02*X72500Y221750D01*
X77300Y222500D02*X79550D01*
X76550Y221750D02*X77300Y222500D01*
X76550Y221750D02*Y220250D01*
X77300Y219500D01*
X79550D01*
X81350Y225500D02*Y219500D01*
Y221750D02*X82100Y222500D01*
X83600D01*
X84350Y221750D01*
Y219500D01*
X86150Y225500D02*X86900Y224750D01*
Y220250D01*
X86150Y219500D02*X86900Y220250D01*
X41000Y216250D02*X88700D01*
X96050Y219500D02*X98000D01*
X95000Y220550D02*X96050Y219500D01*
X95000Y224450D02*Y220550D01*
Y224450D02*X96050Y225500D01*
X98000D01*
X99800Y221750D02*Y220250D01*
Y221750D02*X100550Y222500D01*
X102050D01*
X102800Y221750D01*
Y220250D01*
X102050Y219500D02*X102800Y220250D01*
X100550Y219500D02*X102050D01*
X99800Y220250D02*X100550Y219500D01*
X104600Y222500D02*Y220250D01*
X105350Y219500D01*
X106850D01*
X107600Y220250D01*
Y222500D02*Y220250D01*
X110150Y221750D02*Y219500D01*
Y221750D02*X110900Y222500D01*
X111650D01*
X112400Y221750D01*
Y219500D01*
X109400Y222500D02*X110150Y221750D01*
X114950Y225500D02*Y220250D01*
X115700Y219500D01*
X114200Y223250D02*X115700D01*
X95000Y216250D02*X117200D01*
X130750Y225500D02*Y219500D01*
X130000Y225500D02*X133000D01*
X133750Y224750D01*
Y223250D01*
X133000Y222500D02*X133750Y223250D01*
X130750Y222500D02*X133000D01*
X135550Y225500D02*Y220250D01*
X136300Y219500D01*
X140050Y222500D02*X140800Y221750D01*
X138550Y222500D02*X140050D01*
X137800Y221750D02*X138550Y222500D01*
X137800Y221750D02*Y220250D01*
X138550Y219500D01*
X140800Y222500D02*Y220250D01*
X141550Y219500D01*
X138550D02*X140050D01*
X140800Y220250D01*
X144100Y225500D02*Y220250D01*
X144850Y219500D01*
X143350Y223250D02*X144850D01*
X147100Y219500D02*X149350D01*
X146350Y220250D02*X147100Y219500D01*
X146350Y221750D02*Y220250D01*
Y221750D02*X147100Y222500D01*
X148600D01*
X149350Y221750D01*
X146350Y221000D02*X149350D01*
Y221750D02*Y221000D01*
X154150Y225500D02*Y219500D01*
X153400D02*X154150Y220250D01*
X151900Y219500D02*X153400D01*
X151150Y220250D02*X151900Y219500D01*
X151150Y221750D02*Y220250D01*
Y221750D02*X151900Y222500D01*
X153400D01*
X154150Y221750D01*
X157450Y222500D02*Y221750D01*
Y220250D02*Y219500D01*
X155950Y224750D02*Y224000D01*
Y224750D02*X156700Y225500D01*
X158200D01*
X158950Y224750D01*
Y224000D01*
X157450Y222500D02*X158950Y224000D01*
X130000Y216250D02*X160750D01*
X0Y240500D02*X3000D01*
X1500D02*Y234500D01*
X4800Y240500D02*Y234500D01*
Y236750D02*X5550Y237500D01*
X7050D01*
X7800Y236750D01*
Y234500D01*
X10350D02*X12600D01*
X9600Y235250D02*X10350Y234500D01*
X9600Y236750D02*Y235250D01*
Y236750D02*X10350Y237500D01*
X11850D01*
X12600Y236750D01*
X9600Y236000D02*X12600D01*
Y236750D02*Y236000D01*
X15150Y236750D02*Y234500D01*
Y236750D02*X15900Y237500D01*
X17400D01*
X14400D02*X15150Y236750D01*
X19950Y234500D02*X22200D01*
X19200Y235250D02*X19950Y234500D01*
X19200Y236750D02*Y235250D01*
Y236750D02*X19950Y237500D01*
X21450D01*
X22200Y236750D01*
X19200Y236000D02*X22200D01*
Y236750D02*Y236000D01*
X28950Y237500D02*X29700Y236750D01*
X27450Y237500D02*X28950D01*
X26700Y236750D02*X27450Y237500D01*
X26700Y236750D02*Y235250D01*
X27450Y234500D01*
X29700Y237500D02*Y235250D01*
X30450Y234500D01*
X27450D02*X28950D01*
X29700Y235250D01*
X33000Y236750D02*Y234500D01*
Y236750D02*X33750Y237500D01*
X35250D01*
X32250D02*X33000Y236750D01*
X37800Y234500D02*X40050D01*
X37050Y235250D02*X37800Y234500D01*
X37050Y236750D02*Y235250D01*
Y236750D02*X37800Y237500D01*
X39300D01*
X40050Y236750D01*
X37050Y236000D02*X40050D01*
Y236750D02*Y236000D01*
X44550Y239750D02*X45300Y240500D01*
X46800D01*
X47550Y239750D01*
X46800Y234500D02*X47550Y235250D01*
X45300Y234500D02*X46800D01*
X44550Y235250D02*X45300Y234500D01*
Y237800D02*X46800D01*
X47550Y239750D02*Y238550D01*
Y237050D02*Y235250D01*
Y237050D02*X46800Y237800D01*
X47550Y238550D02*X46800Y237800D01*
X55050Y240500D02*Y234500D01*
X54300D02*X55050Y235250D01*
X52800Y234500D02*X54300D01*
X52050Y235250D02*X52800Y234500D01*
X52050Y236750D02*Y235250D01*
Y236750D02*X52800Y237500D01*
X54300D01*
X55050Y236750D01*
G54D77*X56850Y239000D02*Y238850D01*
G54D76*Y236750D02*Y234500D01*
X59100Y239750D02*Y234500D01*
Y239750D02*X59850Y240500D01*
X60600D01*
X58350Y237500D02*X59850D01*
X62850Y239750D02*Y234500D01*
Y239750D02*X63600Y240500D01*
X64350D01*
X62100Y237500D02*X63600D01*
X66600Y234500D02*X68850D01*
X65850Y235250D02*X66600Y234500D01*
X65850Y236750D02*Y235250D01*
Y236750D02*X66600Y237500D01*
X68100D01*
X68850Y236750D01*
X65850Y236000D02*X68850D01*
Y236750D02*Y236000D01*
X71400Y236750D02*Y234500D01*
Y236750D02*X72150Y237500D01*
X73650D01*
X70650D02*X71400Y236750D01*
X76200Y234500D02*X78450D01*
X75450Y235250D02*X76200Y234500D01*
X75450Y236750D02*Y235250D01*
Y236750D02*X76200Y237500D01*
X77700D01*
X78450Y236750D01*
X75450Y236000D02*X78450D01*
Y236750D02*Y236000D01*
X81000Y236750D02*Y234500D01*
Y236750D02*X81750Y237500D01*
X82500D01*
X83250Y236750D01*
Y234500D01*
X80250Y237500D02*X81000Y236750D01*
X85800Y240500D02*Y235250D01*
X86550Y234500D01*
X85050Y238250D02*X86550D01*
X93750Y240500D02*Y234500D01*
X93000D02*X93750Y235250D01*
X91500Y234500D02*X93000D01*
X90750Y235250D02*X91500Y234500D01*
X90750Y236750D02*Y235250D01*
Y236750D02*X91500Y237500D01*
X93000D01*
X93750Y236750D01*
X96300D02*Y234500D01*
Y236750D02*X97050Y237500D01*
X98550D01*
X95550D02*X96300Y236750D01*
G54D77*X100350Y239000D02*Y238850D01*
G54D76*Y236750D02*Y234500D01*
X101850Y240500D02*Y235250D01*
X102600Y234500D01*
X104100Y240500D02*Y235250D01*
X104850Y234500D01*
X109800D02*X112050D01*
X112800Y235250D01*
X112050Y236000D02*X112800Y235250D01*
X109800Y236000D02*X112050D01*
X109050Y236750D02*X109800Y236000D01*
X109050Y236750D02*X109800Y237500D01*
X112050D01*
X112800Y236750D01*
X109050Y235250D02*X109800Y234500D01*
G54D77*X114600Y239000D02*Y238850D01*
G54D76*Y236750D02*Y234500D01*
X116100Y237500D02*X119100D01*
X116100Y234500D02*X119100Y237500D01*
X116100Y234500D02*X119100D01*
X121650D02*X123900D01*
X120900Y235250D02*X121650Y234500D01*
X120900Y236750D02*Y235250D01*
Y236750D02*X121650Y237500D01*
X123150D01*
X123900Y236750D01*
X120900Y236000D02*X123900D01*
Y236750D02*Y236000D01*
X126450Y234500D02*X128700D01*
X129450Y235250D01*
X128700Y236000D02*X129450Y235250D01*
X126450Y236000D02*X128700D01*
X125700Y236750D02*X126450Y236000D01*
X125700Y236750D02*X126450Y237500D01*
X128700D01*
X129450Y236750D01*
X125700Y235250D02*X126450Y234500D01*
X133950Y237500D02*Y235250D01*
X134700Y234500D01*
X136200D01*
X136950Y235250D01*
Y237500D02*Y235250D01*
X139500Y234500D02*X141750D01*
X142500Y235250D01*
X141750Y236000D02*X142500Y235250D01*
X139500Y236000D02*X141750D01*
X138750Y236750D02*X139500Y236000D01*
X138750Y236750D02*X139500Y237500D01*
X141750D01*
X142500Y236750D01*
X138750Y235250D02*X139500Y234500D01*
X145050D02*X147300D01*
X144300Y235250D02*X145050Y234500D01*
X144300Y236750D02*Y235250D01*
Y236750D02*X145050Y237500D01*
X146550D01*
X147300Y236750D01*
X144300Y236000D02*X147300D01*
Y236750D02*Y236000D01*
X152100Y240500D02*Y234500D01*
X151350D02*X152100Y235250D01*
X149850Y234500D02*X151350D01*
X149100Y235250D02*X149850Y234500D01*
X149100Y236750D02*Y235250D01*
Y236750D02*X149850Y237500D01*
X151350D01*
X152100Y236750D01*
G54D77*X156600Y239000D02*Y238850D01*
G54D76*Y236750D02*Y234500D01*
X158850Y236750D02*Y234500D01*
Y236750D02*X159600Y237500D01*
X160350D01*
X161100Y236750D01*
Y234500D01*
X158100Y237500D02*X158850Y236750D01*
X166350Y240500D02*Y235250D01*
X167100Y234500D01*
X165600Y238250D02*X167100D01*
X168600Y240500D02*Y234500D01*
Y236750D02*X169350Y237500D01*
X170850D01*
X171600Y236750D01*
Y234500D01*
G54D77*X173400Y239000D02*Y238850D01*
G54D76*Y236750D02*Y234500D01*
X175650D02*X177900D01*
X178650Y235250D01*
X177900Y236000D02*X178650Y235250D01*
X175650Y236000D02*X177900D01*
X174900Y236750D02*X175650Y236000D01*
X174900Y236750D02*X175650Y237500D01*
X177900D01*
X178650Y236750D01*
X174900Y235250D02*X175650Y234500D01*
X183150Y240500D02*Y235250D01*
X183900Y234500D01*
X187650Y237500D02*X188400Y236750D01*
X186150Y237500D02*X187650D01*
X185400Y236750D02*X186150Y237500D01*
X185400Y236750D02*Y235250D01*
X186150Y234500D01*
X188400Y237500D02*Y235250D01*
X189150Y234500D01*
X186150D02*X187650D01*
X188400Y235250D01*
X190950Y237500D02*Y235250D01*
X191700Y234500D01*
X193950Y237500D02*Y233000D01*
X193200Y232250D02*X193950Y233000D01*
X191700Y232250D02*X193200D01*
X190950Y233000D02*X191700Y232250D01*
Y234500D02*X193200D01*
X193950Y235250D01*
X195750Y236750D02*Y235250D01*
Y236750D02*X196500Y237500D01*
X198000D01*
X198750Y236750D01*
Y235250D01*
X198000Y234500D02*X198750Y235250D01*
X196500Y234500D02*X198000D01*
X195750Y235250D02*X196500Y234500D01*
X200550Y237500D02*Y235250D01*
X201300Y234500D01*
X202800D01*
X203550Y235250D01*
Y237500D02*Y235250D01*
X206100Y240500D02*Y235250D01*
X206850Y234500D01*
X205350Y238250D02*X206850D01*
X208350Y233000D02*X209850Y234500D01*
X216600Y240500D02*X217350Y239750D01*
X215100Y240500D02*X216600D01*
X214350Y239750D02*X215100Y240500D01*
X214350Y239750D02*Y235250D01*
X215100Y234500D01*
X216600Y237800D02*X217350Y237050D01*
X214350Y237800D02*X216600D01*
X215100Y234500D02*X216600D01*
X217350Y235250D01*
Y237050D02*Y235250D01*
X219150Y236750D02*X222150Y240500D01*
X219150Y236750D02*X222900D01*
X222150Y240500D02*Y234500D01*
X227400Y240500D02*Y234500D01*
Y236750D02*X228150Y237500D01*
X229650D01*
X230400Y236750D01*
Y234500D01*
X232200Y236750D02*Y235250D01*
Y236750D02*X232950Y237500D01*
X234450D01*
X235200Y236750D01*
Y235250D01*
X234450Y234500D02*X235200Y235250D01*
X232950Y234500D02*X234450D01*
X232200Y235250D02*X232950Y234500D01*
X237000Y240500D02*Y235250D01*
X237750Y234500D01*
X240000D02*X242250D01*
X239250Y235250D02*X240000Y234500D01*
X239250Y236750D02*Y235250D01*
Y236750D02*X240000Y237500D01*
X241500D01*
X242250Y236750D01*
X239250Y236000D02*X242250D01*
Y236750D02*Y236000D01*
X244800Y234500D02*X247050D01*
X247800Y235250D01*
X247050Y236000D02*X247800Y235250D01*
X244800Y236000D02*X247050D01*
X244050Y236750D02*X244800Y236000D01*
X244050Y236750D02*X244800Y237500D01*
X247050D01*
X247800Y236750D01*
X244050Y235250D02*X244800Y234500D01*
X253050Y240500D02*Y235250D01*
X253800Y234500D01*
X252300Y238250D02*X253800D01*
X255300Y236750D02*Y235250D01*
Y236750D02*X256050Y237500D01*
X257550D01*
X258300Y236750D01*
Y235250D01*
X257550Y234500D02*X258300Y235250D01*
X256050Y234500D02*X257550D01*
X255300Y235250D02*X256050Y234500D01*
X260850Y240500D02*Y235250D01*
X261600Y234500D01*
X260100Y238250D02*X261600D01*
X265350Y237500D02*X266100Y236750D01*
X263850Y237500D02*X265350D01*
X263100Y236750D02*X263850Y237500D01*
X263100Y236750D02*Y235250D01*
X263850Y234500D01*
X266100Y237500D02*Y235250D01*
X266850Y234500D01*
X263850D02*X265350D01*
X266100Y235250D01*
X268650Y240500D02*Y235250D01*
X269400Y234500D01*
G54D78*X4164Y150000D02*Y2000D01*
X474662D01*
X4164Y150000D02*X474662D01*
Y2000D01*
G54D76*X151675Y-9500D02*X154675D01*
X155425Y-8750D01*
Y-6950D02*Y-8750D01*
X154675Y-6200D02*X155425Y-6950D01*
X152425Y-6200D02*X154675D01*
X152425Y-3500D02*Y-9500D01*
X151675Y-3500D02*X154675D01*
X155425Y-4250D01*
Y-5450D01*
X154675Y-6200D02*X155425Y-5450D01*
X157225Y-7250D02*Y-8750D01*
Y-7250D02*X157975Y-6500D01*
X159475D01*
X160225Y-7250D01*
Y-8750D01*
X159475Y-9500D02*X160225Y-8750D01*
X157975Y-9500D02*X159475D01*
X157225Y-8750D02*X157975Y-9500D01*
X164275Y-6500D02*X165025Y-7250D01*
X162775Y-6500D02*X164275D01*
X162025Y-7250D02*X162775Y-6500D01*
X162025Y-7250D02*Y-8750D01*
X162775Y-9500D01*
X165025Y-6500D02*Y-8750D01*
X165775Y-9500D01*
X162775D02*X164275D01*
X165025Y-8750D01*
X168325Y-7250D02*Y-9500D01*
Y-7250D02*X169075Y-6500D01*
X170575D01*
X167575D02*X168325Y-7250D01*
X175375Y-3500D02*Y-9500D01*
X174625D02*X175375Y-8750D01*
X173125Y-9500D02*X174625D01*
X172375Y-8750D02*X173125Y-9500D01*
X172375Y-7250D02*Y-8750D01*
Y-7250D02*X173125Y-6500D01*
X174625D01*
X175375Y-7250D01*
X179875D02*Y-8750D01*
Y-7250D02*X180625Y-6500D01*
X182125D01*
X182875Y-7250D01*
Y-8750D01*
X182125Y-9500D02*X182875Y-8750D01*
X180625Y-9500D02*X182125D01*
X179875Y-8750D02*X180625Y-9500D01*
X184675Y-6500D02*Y-8750D01*
X185425Y-9500D01*
X186925D01*
X187675Y-8750D01*
Y-6500D02*Y-8750D01*
X190225Y-3500D02*Y-8750D01*
X190975Y-9500D01*
X189475Y-5750D02*X190975D01*
X192475Y-3500D02*Y-8750D01*
X193225Y-9500D01*
G54D77*X194725Y-5000D02*Y-5150D01*
G54D76*Y-7250D02*Y-9500D01*
X196975Y-7250D02*Y-9500D01*
Y-7250D02*X197725Y-6500D01*
X198475D01*
X199225Y-7250D01*
Y-9500D01*
X196225Y-6500D02*X196975Y-7250D01*
X201775Y-9500D02*X204025D01*
X201025Y-8750D02*X201775Y-9500D01*
X201025Y-7250D02*Y-8750D01*
Y-7250D02*X201775Y-6500D01*
X203275D01*
X204025Y-7250D01*
X201025Y-8000D02*X204025D01*
Y-7250D02*Y-8000D01*
G54D77*X208525Y-5000D02*Y-5150D01*
G54D76*Y-7250D02*Y-9500D01*
X210775D02*X213025D01*
X213775Y-8750D01*
X213025Y-8000D02*X213775Y-8750D01*
X210775Y-8000D02*X213025D01*
X210025Y-7250D02*X210775Y-8000D01*
X210025Y-7250D02*X210775Y-6500D01*
X213025D01*
X213775Y-7250D01*
X210025Y-8750D02*X210775Y-9500D01*
X219025Y-3500D02*Y-8750D01*
X219775Y-9500D01*
X218275Y-5750D02*X219775D01*
X221275Y-3500D02*Y-9500D01*
Y-7250D02*X222025Y-6500D01*
X223525D01*
X224275Y-7250D01*
Y-9500D01*
X226825D02*X229075D01*
X226075Y-8750D02*X226825Y-9500D01*
X226075Y-7250D02*Y-8750D01*
Y-7250D02*X226825Y-6500D01*
X228325D01*
X229075Y-7250D01*
X226075Y-8000D02*X229075D01*
Y-7250D02*Y-8000D01*
X234325Y-6500D02*X236575D01*
X233575Y-7250D02*X234325Y-6500D01*
X233575Y-7250D02*Y-8750D01*
X234325Y-9500D01*
X236575D01*
X239125D02*X241375D01*
X238375Y-8750D02*X239125Y-9500D01*
X238375Y-7250D02*Y-8750D01*
Y-7250D02*X239125Y-6500D01*
X240625D01*
X241375Y-7250D01*
X238375Y-8000D02*X241375D01*
Y-7250D02*Y-8000D01*
X243925Y-7250D02*Y-9500D01*
Y-7250D02*X244675Y-6500D01*
X245425D01*
X246175Y-7250D01*
Y-9500D01*
X243175Y-6500D02*X243925Y-7250D01*
X248725Y-3500D02*Y-8750D01*
X249475Y-9500D01*
X247975Y-5750D02*X249475D01*
X251725Y-9500D02*X253975D01*
X250975Y-8750D02*X251725Y-9500D01*
X250975Y-7250D02*Y-8750D01*
Y-7250D02*X251725Y-6500D01*
X253225D01*
X253975Y-7250D01*
X250975Y-8000D02*X253975D01*
Y-7250D02*Y-8000D01*
X256525Y-7250D02*Y-9500D01*
Y-7250D02*X257275Y-6500D01*
X258775D01*
X255775D02*X256525Y-7250D01*
X260575Y-3500D02*Y-8750D01*
X261325Y-9500D01*
G54D77*X262825Y-5000D02*Y-5150D01*
G54D76*Y-7250D02*Y-9500D01*
X265075Y-7250D02*Y-9500D01*
Y-7250D02*X265825Y-6500D01*
X266575D01*
X267325Y-7250D01*
Y-9500D01*
X264325Y-6500D02*X265075Y-7250D01*
X269875Y-9500D02*X272125D01*
X269125Y-8750D02*X269875Y-9500D01*
X269125Y-7250D02*Y-8750D01*
Y-7250D02*X269875Y-6500D01*
X271375D01*
X272125Y-7250D01*
X269125Y-8000D02*X272125D01*
Y-7250D02*Y-8000D01*
X276625Y-7250D02*Y-8750D01*
Y-7250D02*X277375Y-6500D01*
X278875D01*
X279625Y-7250D01*
Y-8750D01*
X278875Y-9500D02*X279625Y-8750D01*
X277375Y-9500D02*X278875D01*
X276625Y-8750D02*X277375Y-9500D01*
X282175Y-4250D02*Y-9500D01*
Y-4250D02*X282925Y-3500D01*
X283675D01*
X281425Y-6500D02*X282925D01*
X288625Y-3500D02*Y-8750D01*
X289375Y-9500D01*
X287875Y-5750D02*X289375D01*
X290875Y-3500D02*Y-9500D01*
Y-7250D02*X291625Y-6500D01*
X293125D01*
X293875Y-7250D01*
Y-9500D01*
G54D77*X295675Y-5000D02*Y-5150D01*
G54D76*Y-7250D02*Y-9500D01*
X297925D02*X300175D01*
X300925Y-8750D01*
X300175Y-8000D02*X300925Y-8750D01*
X297925Y-8000D02*X300175D01*
X297175Y-7250D02*X297925Y-8000D01*
X297175Y-7250D02*X297925Y-6500D01*
X300175D01*
X300925Y-7250D01*
X297175Y-8750D02*X297925Y-9500D01*
X306175Y-7250D02*Y-11750D01*
X305425Y-6500D02*X306175Y-7250D01*
X306925Y-6500D01*
X308425D01*
X309175Y-7250D01*
Y-8750D01*
X308425Y-9500D02*X309175Y-8750D01*
X306925Y-9500D02*X308425D01*
X306175Y-8750D02*X306925Y-9500D01*
X313225Y-6500D02*X313975Y-7250D01*
X311725Y-6500D02*X313225D01*
X310975Y-7250D02*X311725Y-6500D01*
X310975Y-7250D02*Y-8750D01*
X311725Y-9500D01*
X313975Y-6500D02*Y-8750D01*
X314725Y-9500D01*
X311725D02*X313225D01*
X313975Y-8750D01*
X317275Y-3500D02*Y-8750D01*
X318025Y-9500D01*
X316525Y-5750D02*X318025D01*
X319525Y-3500D02*Y-9500D01*
Y-7250D02*X320275Y-6500D01*
X321775D01*
X322525Y-7250D01*
Y-9500D01*
X200750Y180500D02*Y174500D01*
X202700Y180500D02*X203750Y179450D01*
Y175550D01*
X202700Y174500D02*X203750Y175550D01*
X200000Y174500D02*X202700D01*
X200000Y180500D02*X202700D01*
X207800Y177500D02*X208550Y176750D01*
X206300Y177500D02*X207800D01*
X205550Y176750D02*X206300Y177500D01*
X205550Y176750D02*Y175250D01*
X206300Y174500D01*
X208550Y177500D02*Y175250D01*
X209300Y174500D01*
X206300D02*X207800D01*
X208550Y175250D01*
X211850Y180500D02*Y175250D01*
X212600Y174500D01*
X211100Y178250D02*X212600D01*
X214850Y174500D02*X217100D01*
X214100Y175250D02*X214850Y174500D01*
X214100Y176750D02*Y175250D01*
Y176750D02*X214850Y177500D01*
X216350D01*
X217100Y176750D01*
X214100Y176000D02*X217100D01*
Y176750D02*Y176000D01*
X218900Y178250D02*X219650D01*
X218900Y176750D02*X219650D01*
X224150Y180500D02*Y177500D01*
X224900Y174500D01*
X226400Y177500D01*
X227900Y174500D01*
X228650Y177500D01*
Y180500D02*Y177500D01*
X231200Y174500D02*X233450D01*
X230450Y175250D02*X231200Y174500D01*
X230450Y176750D02*Y175250D01*
Y176750D02*X231200Y177500D01*
X232700D01*
X233450Y176750D01*
X230450Y176000D02*X233450D01*
Y176750D02*Y176000D01*
X238250Y180500D02*Y174500D01*
X237500D02*X238250Y175250D01*
X236000Y174500D02*X237500D01*
X235250Y175250D02*X236000Y174500D01*
X235250Y176750D02*Y175250D01*
Y176750D02*X236000Y177500D01*
X237500D01*
X238250Y176750D01*
X243800Y180500D02*X245000D01*
Y175250D01*
X244250Y174500D02*X245000Y175250D01*
X243500Y174500D02*X244250D01*
X242750Y175250D02*X243500Y174500D01*
X242750Y176000D02*Y175250D01*
X246800Y177500D02*Y175250D01*
X247550Y174500D01*
X249050D01*
X249800Y175250D01*
Y177500D02*Y175250D01*
X251600Y180500D02*Y175250D01*
X252350Y174500D01*
X256550Y179300D02*X257750Y180500D01*
Y174500D01*
X256550D02*X258800D01*
X260600Y175250D02*X261350Y174500D01*
X260600Y176450D02*Y175250D01*
Y176450D02*X261650Y177500D01*
X262550D01*
X263600Y176450D01*
Y175250D01*
X262850Y174500D02*X263600Y175250D01*
X261350Y174500D02*X262850D01*
X260600Y178550D02*X261650Y177500D01*
X260600Y179750D02*Y178550D01*
Y179750D02*X261350Y180500D01*
X262850D01*
X263600Y179750D01*
Y178550D01*
X262550Y177500D02*X263600Y178550D01*
X268100Y179750D02*X268850Y180500D01*
X271100D01*
X271850Y179750D01*
Y178250D01*
X268100Y174500D02*X271850Y178250D01*
X268100Y174500D02*X271850D01*
X273650Y179300D02*X274850Y180500D01*
Y174500D01*
X273650D02*X275900D01*
X277700Y178250D02*X278450D01*
X277700Y176750D02*X278450D01*
X280250D02*X283250Y180500D01*
X280250Y176750D02*X284000D01*
X283250Y180500D02*Y174500D01*
X285800Y175250D02*X286550Y174500D01*
X285800Y179750D02*Y175250D01*
Y179750D02*X286550Y180500D01*
X288050D01*
X288800Y179750D01*
Y175250D01*
X288050Y174500D02*X288800Y175250D01*
X286550Y174500D02*X288050D01*
X285800Y176000D02*X288800Y179000D01*
X290600Y178250D02*X291350D01*
X290600Y176750D02*X291350D01*
X293150Y179750D02*X293900Y180500D01*
X296150D01*
X296900Y179750D01*
Y178250D01*
X293150Y174500D02*X296900Y178250D01*
X293150Y174500D02*X296900D01*
X298700Y175250D02*X299450Y174500D01*
X298700Y176450D02*Y175250D01*
Y176450D02*X299750Y177500D01*
X300650D01*
X301700Y176450D01*
Y175250D01*
X300950Y174500D02*X301700Y175250D01*
X299450Y174500D02*X300950D01*
X298700Y178550D02*X299750Y177500D01*
X298700Y179750D02*Y178550D01*
Y179750D02*X299450Y180500D01*
X300950D01*
X301700Y179750D01*
Y178550D01*
X300650Y177500D02*X301700Y178550D01*
X306200Y179750D02*X306950Y180500D01*
X309200D01*
X309950Y179750D01*
Y178250D01*
X306200Y174500D02*X309950Y178250D01*
X306200Y174500D02*X309950D01*
X311750Y175250D02*X312500Y174500D01*
X311750Y179750D02*Y175250D01*
Y179750D02*X312500Y180500D01*
X314000D01*
X314750Y179750D01*
Y175250D01*
X314000Y174500D02*X314750Y175250D01*
X312500Y174500D02*X314000D01*
X311750Y176000D02*X314750Y179000D01*
X316550Y179300D02*X317750Y180500D01*
Y174500D01*
X316550D02*X318800D01*
X320600Y179750D02*X321350Y180500D01*
X323600D01*
X324350Y179750D01*
Y178250D01*
X320600Y174500D02*X324350Y178250D01*
X320600Y174500D02*X324350D01*
X328850Y180500D02*Y175250D01*
X329600Y174500D01*
X331100D01*
X331850Y175250D01*
Y180500D02*Y175250D01*
X333650Y180500D02*X336650D01*
X335150D02*Y174500D01*
X339500D02*X341450D01*
X338450Y175550D02*X339500Y174500D01*
X338450Y179450D02*Y175550D01*
Y179450D02*X339500Y180500D01*
X341450D01*
X200000Y194000D02*Y189500D01*
Y194000D02*X201050Y195500D01*
X202700D01*
X203750Y194000D01*
Y189500D01*
X200000Y192500D02*X203750D01*
X205550D02*Y190250D01*
X206300Y189500D01*
X207800D01*
X208550Y190250D01*
Y192500D02*Y190250D01*
X211100Y195500D02*Y190250D01*
X211850Y189500D01*
X210350Y193250D02*X211850D01*
X213350Y195500D02*Y189500D01*
Y191750D02*X214100Y192500D01*
X215600D01*
X216350Y191750D01*
Y189500D01*
X218150Y191750D02*Y190250D01*
Y191750D02*X218900Y192500D01*
X220400D01*
X221150Y191750D01*
Y190250D01*
X220400Y189500D02*X221150Y190250D01*
X218900Y189500D02*X220400D01*
X218150Y190250D02*X218900Y189500D01*
X223700Y191750D02*Y189500D01*
Y191750D02*X224450Y192500D01*
X225950D01*
X222950D02*X223700Y191750D01*
X227750Y193250D02*X228500D01*
X227750Y191750D02*X228500D01*
X200000Y210500D02*X203000D01*
X201500D02*Y204500D01*
G54D77*X204800Y209000D02*Y208850D01*
G54D76*Y206750D02*Y204500D01*
X207050Y210500D02*Y205250D01*
X207800Y204500D01*
X206300Y208250D02*X207800D01*
X209300Y210500D02*Y205250D01*
X210050Y204500D01*
X212300D02*X214550D01*
X211550Y205250D02*X212300Y204500D01*
X211550Y206750D02*Y205250D01*
Y206750D02*X212300Y207500D01*
X213800D01*
X214550Y206750D01*
X211550Y206000D02*X214550D01*
Y206750D02*Y206000D01*
X216350Y208250D02*X217100D01*
X216350Y206750D02*X217100D01*
X221600Y205250D02*X222350Y204500D01*
X221600Y209750D02*X222350Y210500D01*
X221600Y209750D02*Y205250D01*
X224150Y207500D02*Y205250D01*
X224900Y204500D01*
X226400D01*
X227150Y205250D01*
Y207500D02*Y205250D01*
X229700Y206750D02*Y204500D01*
Y206750D02*X230450Y207500D01*
X231200D01*
X231950Y206750D01*
Y204500D01*
X228950Y207500D02*X229700Y206750D01*
X233750Y210500D02*Y204500D01*
Y206750D02*X236000Y204500D01*
X233750Y206750D02*X235250Y208250D01*
X238550Y206750D02*Y204500D01*
Y206750D02*X239300Y207500D01*
X240050D01*
X240800Y206750D01*
Y204500D01*
X237800Y207500D02*X238550Y206750D01*
X242600D02*Y205250D01*
Y206750D02*X243350Y207500D01*
X244850D01*
X245600Y206750D01*
Y205250D01*
X244850Y204500D02*X245600Y205250D01*
X243350Y204500D02*X244850D01*
X242600Y205250D02*X243350Y204500D01*
X247400Y207500D02*Y205250D01*
X248150Y204500D01*
X248900D01*
X249650Y205250D01*
Y207500D02*Y205250D01*
X250400Y204500D01*
X251150D01*
X251900Y205250D01*
Y207500D02*Y205250D01*
X254450Y206750D02*Y204500D01*
Y206750D02*X255200Y207500D01*
X255950D01*
X256700Y206750D01*
Y204500D01*
X253700Y207500D02*X254450Y206750D01*
X258500Y210500D02*X259250Y209750D01*
Y205250D01*
X258500Y204500D02*X259250Y205250D01*
X263750Y207500D02*X266750D01*
X271250Y210500D02*Y204500D01*
Y210500D02*X274250D01*
X271250Y207800D02*X273500D01*
X278300Y207500D02*X279050Y206750D01*
X276800Y207500D02*X278300D01*
X276050Y206750D02*X276800Y207500D01*
X276050Y206750D02*Y205250D01*
X276800Y204500D01*
X279050Y207500D02*Y205250D01*
X279800Y204500D01*
X276800D02*X278300D01*
X279050Y205250D01*
X281600Y210500D02*Y204500D01*
Y205250D02*X282350Y204500D01*
X283850D01*
X284600Y205250D01*
Y206750D02*Y205250D01*
X283850Y207500D02*X284600Y206750D01*
X282350Y207500D02*X283850D01*
X281600Y206750D02*X282350Y207500D01*
X287150Y206750D02*Y204500D01*
Y206750D02*X287900Y207500D01*
X289400D01*
X286400D02*X287150Y206750D01*
G54D77*X291200Y209000D02*Y208850D01*
G54D76*Y206750D02*Y204500D01*
X293450Y207500D02*X295700D01*
X292700Y206750D02*X293450Y207500D01*
X292700Y206750D02*Y205250D01*
X293450Y204500D01*
X295700D01*
X299750Y207500D02*X300500Y206750D01*
X298250Y207500D02*X299750D01*
X297500Y206750D02*X298250Y207500D01*
X297500Y206750D02*Y205250D01*
X298250Y204500D01*
X300500Y207500D02*Y205250D01*
X301250Y204500D01*
X298250D02*X299750D01*
X300500Y205250D01*
X303800Y210500D02*Y205250D01*
X304550Y204500D01*
X303050Y208250D02*X304550D01*
G54D77*X306050Y209000D02*Y208850D01*
G54D76*Y206750D02*Y204500D01*
X307550Y206750D02*Y205250D01*
Y206750D02*X308300Y207500D01*
X309800D01*
X310550Y206750D01*
Y205250D01*
X309800Y204500D02*X310550Y205250D01*
X308300Y204500D02*X309800D01*
X307550Y205250D02*X308300Y204500D01*
X313100Y206750D02*Y204500D01*
Y206750D02*X313850Y207500D01*
X314600D01*
X315350Y206750D01*
Y204500D01*
X312350Y207500D02*X313100Y206750D01*
X320600Y210500D02*Y204500D01*
X322550Y210500D02*X323600Y209450D01*
Y205550D01*
X322550Y204500D02*X323600Y205550D01*
X319850Y204500D02*X322550D01*
X319850Y210500D02*X322550D01*
X326150Y206750D02*Y204500D01*
Y206750D02*X326900Y207500D01*
X328400D01*
X325400D02*X326150Y206750D01*
X332450Y207500D02*X333200Y206750D01*
X330950Y207500D02*X332450D01*
X330200Y206750D02*X330950Y207500D01*
X330200Y206750D02*Y205250D01*
X330950Y204500D01*
X333200Y207500D02*Y205250D01*
X333950Y204500D01*
X330950D02*X332450D01*
X333200Y205250D01*
X335750Y207500D02*Y205250D01*
X336500Y204500D01*
X337250D01*
X338000Y205250D01*
Y207500D02*Y205250D01*
X338750Y204500D01*
X339500D01*
X340250Y205250D01*
Y207500D02*Y205250D01*
G54D77*X342050Y209000D02*Y208850D01*
G54D76*Y206750D02*Y204500D01*
X344300Y206750D02*Y204500D01*
Y206750D02*X345050Y207500D01*
X345800D01*
X346550Y206750D01*
Y204500D01*
X343550Y207500D02*X344300Y206750D01*
X350600Y207500D02*X351350Y206750D01*
X349100Y207500D02*X350600D01*
X348350Y206750D02*X349100Y207500D01*
X348350Y206750D02*Y205250D01*
X349100Y204500D01*
X350600D01*
X351350Y205250D01*
X348350Y203000D02*X349100Y202250D01*
X350600D01*
X351350Y203000D01*
Y207500D02*Y203000D01*
M02*
