M48
INCH
T64C0.020
T63C0.034
T62C0.109
%
T64
X006550Y012700
X005650Y012000
X007704Y012354
X005950Y004600
X008450Y005100
X004750Y003300
X005150Y003700
X004750Y002400
X035950Y010600
X043704Y012354
X037704Y012354
X036800Y010600
X033450Y010100
X030350Y004900
X030350Y006400
X030950Y009600
X028450Y009100
X025950Y008600
X027250Y006400
X039350Y003100
X041000Y006500
X027250Y004900
X027350Y003100
X013704Y012354
X019704Y012354
X025704Y012354
X022702Y012352
X015450Y011100
X015954Y006600
X013450Y006100
X010950Y005600
X023450Y008100
X020950Y007600
X018450Y007100
T63
X002700Y004600
X004196Y004600
X003448Y005100
X001952Y005100
X002700Y005600
X004196Y005600
X003448Y006100
X003448Y007100
X003448Y008100
X003448Y009100
X003448Y010100
X001952Y006100
X001952Y007100
X001952Y008100
X001952Y009100
X001952Y010100
X002700Y006600
X002700Y007600
X002700Y008600
X002700Y009600
X002700Y010600
X004196Y006600
X004196Y007600
X004196Y008600
X004196Y009600
X004196Y010600
T62
X002700Y001450
X002700Y013750
X046138Y013750
X046138Y001450
M30
