G04 start of page 9 for group -4015 idx -4015 *
G04 Title: (unknown), toppaste *
G04 Creator: pcb 20110918 *
G04 CreationDate: Wed Jul 18 21:40:28 2012 UTC *
G04 For: fosse *
G04 Format: Gerber/RS-274X *
G04 PCB-Dimensions: 476000 152000 *
G04 PCB-Coordinate-Origin: lower left *
%MOIN*%
%FSLAX25Y25*%
%LNTOPPASTE*%
%ADD74R,0.0807X0.0807*%
G54D74*X253891Y123538D02*X260190D01*
X433851Y28500D02*X440150D01*
X403871Y28520D02*X410170D01*
X373871D02*X380170D01*
X343871D02*X350170D01*
X313871D02*X320170D01*
X283871D02*X290170D01*
X253871D02*X260170D01*
X223890Y28500D02*X230189D01*
X163871Y28520D02*X170170D01*
X133871D02*X140170D01*
X103870D02*X110169D01*
X73871D02*X80170D01*
X193891Y28540D02*X200190D01*
X433891Y123539D02*X440190D01*
X403891Y123538D02*X410190D01*
X373891D02*X380190D01*
X343891D02*X350190D01*
X313871Y123519D02*X320170D01*
X283891Y123538D02*X290190D01*
X223871Y123519D02*X230170D01*
X193891Y123538D02*X200190D01*
X163891D02*X170190D01*
X133891D02*X140190D01*
X103891D02*X110190D01*
X73891D02*X80190D01*
M02*
